<?xml version="1.0" encoding="utf-8"?>
<!-- Generator: Adobe Illustrator 20.1.0, SVG Export Plug-In . SVG Version: 6.00 Build 0)  -->
<svg version="1.1" xmlns="http://www.w3.org/2000/svg" xmlns:xlink="http://www.w3.org/1999/xlink" x="0px" y="0px"
	 viewBox="0 0 250 190.7" style="enable-background:new 0 0 250 190.7;" xml:space="preserve">
<style type="text/css">
	.st0{display:none;}
	.st1{fill:#909496;}
	.st2{fill:#0496AA;}
</style>
<g id="Layer_1" class="st0">
	
		<image style="display:inline;overflow:visible;" width="678" height="1695" xlink:href="inspo-2.png"  transform="matrix(1 0 0 1 -385 -222)">
	</image>
</g>
<g id="Layer_2">
	<path class="st1" d="M102.7,133.6l-71.1,41c-1.4,0.8-3.3,0.3-4.1-1.1L2.9,130.9c-0.8-1.4-0.3-3.3,1.1-4.1l71.1-41
		c1.4-0.8,3.3-0.3,4.1,1.1l24.6,42.6C104.6,130.9,104.1,132.8,102.7,133.6z"/>
	<path class="st1" d="M247.2,50.7l-71.1,41c-1.4,0.8-3.3,0.3-4.1-1.1l-24.6-42.6c-0.8-1.4-0.3-3.3,1.1-4.1l71.1-41
		c1.4-0.8,3.3-0.3,4.1,1.1l24.6,42.6C249.1,48.1,248.7,49.9,247.2,50.7z"/>
	<path class="st1" d="M177.7,170.9c0,0,3.6,4.9-0.6,8.3c-4.2,3.3-8.8,0.6-9.1-3.8l-22.2-9.7l-14.7,7.6c0,0-5.3,1.8-5.8-5.5
		c-0.5-7.4,8.1-20.5,18.6-25.8c0,0,4.6-4.3-2.6-1.1c-7.2,3.2-10.2,2.9-13.4-1.2c-3.2-4.1-7.3-9.5-7.3-9.5s-2.3-3.1-0.9-5.7
		s1.4-5.3-2.5-4.4s-4.8,0-6.4-2.2c-1.6-2.2-23.3-40.2-23.3-40.2S85.2,75.2,88,73s7.2-4.4,5.1-6.4c-2.1-2-4.8-4.2-4.9-5.2
		c-0.1-1,5.2-8.8,11-12.5c5.8-3.7,12.2-6.2,17.8-7c0,0,3.1-1.2,4.1,1.7c1,3,1,6.8,4.3,6.4c3.3-0.4,5.7-4.7,9.2,2.1
		c3.6,6.8,23.6,40.6,23.6,40.6s1.7,2.2-0.4,4.4s-5.7,7.5-2.1,7s5.9,5.4,11.1,12.8s-3.8,10.4-6,12.6c-2.2,2.2-2.2,3.8,1.7,2.3
		c3.9-1.5,13.2-9.5,30.5-1.4c0,0,5.9,2.8,1.4,5.7c-4.6,2.8-14.9,11-14.9,11L177.7,170.9z"/>
	<rect x="79.7" y="94.8" transform="matrix(0.866 -0.5 0.5 0.866 -37.9027 59.2062)" class="st2" width="23.7" height="11"/>
	<rect x="86.2" y="106.2" transform="matrix(0.866 -0.5 0.5 0.866 -42.6895 63.993)" class="st2" width="23.7" height="11"/>
	<rect x="141" y="60.6" transform="matrix(0.866 -0.5 0.5 0.866 -12.5479 85.2602)" class="st2" width="23.7" height="11"/>
	<rect x="147.5" y="71.9" transform="matrix(0.866 -0.5 0.5 0.866 -17.3348 90.047)" class="st2" width="23.7" height="11"/>
</g>
</svg>
